# xmcd CD database file
#
# Track frame offsets:
#	150
#	12631
#	36319
#	48184
#	62916
#	77241
#	91887
#	101396
#	113839
#	126410
#	137669
#	153532
#	166425
#	182575
#	202306
#	236726
#	249259
#	271774
#	285787
#	304552
#
# Disc length: 4225 seconds
#
# Revision: 4
# Processed by: cddbd v1.4PL0 Copyright (c) Steve Scherf et al.
# Submitted via: jetAudio 5
#
DISCID=12107f14
DTITLE=James Brown - 20 All Time Greatest Hits
DYEAR=1991
DGENRE=Soul
TTITLE0=I Got You (I Feel Good)
TTITLE1=Get Up (I Feel Like Being A) Sex Machine, Pt. 1
TTITLE2=I Got the Feelin'
TTITLE3=Mother Popcorn, Pt. 1
TTITLE4=Give It Up or Turnit a Loose
TTITLE5=Make It Funky, Pt. 1
TTITLE6=Papa's Got a Brand New Bag, Pt. 1
TTITLE7=Think
TTITLE8=It's a Man's Man's Man's World
TTITLE9=Try Me
TTITLE10=Night Train
TTITLE11=Cold Sweat, Pt. 1
TTITLE12=Get on the Good Foot
TTITLE13=Papa Don't Take No Mess, Pt. 1
TTITLE14=The Payback
TTITLE15=Say It Loud (I'm Black and I'm Proud), Pt. 1
TTITLE16=Super Bad, Pts. 1&2
TTITLE17=Hot Pants, Pt. 1
TTITLE18=Get Up Offa That Thing
TTITLE19=Please, Please, Please
EXTD=YEAR: 1991
EXTT0=
EXTT1=
EXTT2=
EXTT3=
EXTT4=
EXTT5=
EXTT6=
EXTT7=
EXTT8=
EXTT9=
EXTT10=
EXTT11=
EXTT12=
EXTT13=
EXTT14=
EXTT15=
EXTT16=
EXTT17=
EXTT18=
EXTT19=
PLAYORDER=
